HIERARCHY
ROOT Hips
{
	OFFSET 0.00 0.00 0.00
	CHANNELS 6 Xposition Yposition Zposition Xrotation Yrotation Zrotation
	JOINT Spine
	{
		OFFSET 0.00000 7.06766 0.00000
		CHANNELS 3 Xrotation Yrotation Zrotation
		JOINT Head
		{
			OFFSET 0.00000 15.03989 0.00000
			CHANNELS 3 Xrotation Yrotation Zrotation
			End Site
			{
				OFFSET 0.00000 4.52755 0.00000
			}
		}
		JOINT LeftShoulder
		{
			OFFSET 0.00000 10.53037 0.00000
			CHANNELS 3 Xrotation Yrotation Zrotation
			JOINT LeftArm
			{
				OFFSET 7.02886 0.00000 0.00000
				CHANNELS 3 Xrotation Yrotation Zrotation
				JOINT LeftForeArm
				{
					OFFSET 10.79770 0.00000 0.00000
					CHANNELS 3 Yrotation Zrotation Xrotation
					JOINT LeftHand
					{
						OFFSET 7.90744 0.00000 0.00000
						CHANNELS 3 Xrotation Yrotation Zrotation
						JOINT LeftHandThumb1
						{
							OFFSET 0.00000 0.00000 0.00000
							CHANNELS 3 Xrotation Zrotation Yrotation
							End Site
							{
								OFFSET 0.00000 0.00000 3.93700
							}
						}
						End Site
						{
							OFFSET 3.93700 0.00000 0.00000
						}
					}
				}
			}
		}
		JOINT RightShoulder
		{
			OFFSET 0.00000 10.53037 0.00000
			CHANNELS 3 Xrotation Yrotation Zrotation
			JOINT RightArm
			{
				OFFSET -7.02886 0.00000 0.00000
				CHANNELS 3 Xrotation Yrotation Zrotation
				JOINT RightForeArm
				{
					OFFSET -10.79770 0.00000 0.00000
					CHANNELS 3 Yrotation Zrotation Xrotation
					JOINT RightHand
					{
						OFFSET -7.90744 0.00000 0.00000
						CHANNELS 3 Xrotation Yrotation Zrotation
						JOINT RightHandThumb1
						{
							OFFSET 0.00000 0.00000 0.00000
							CHANNELS 3 Xrotation Zrotation Yrotation
							End Site
							{
								OFFSET 0.00000 0.00000 3.93700
							}
						}
						End Site
						{
							OFFSET -3.93700 0.00000 0.00000
						}
					}
				}
			}
		}
	}
	JOINT LeftUpLeg
	{
		OFFSET 4.01300 0.00000 0.00000
		CHANNELS 3 Xrotation Yrotation Zrotation
		JOINT LeftLeg
		{
			OFFSET 0.00000 -16.89976 0.00000
			CHANNELS 3 Xrotation Yrotation Zrotation
			JOINT LeftFoot
			{
				OFFSET 0.00000 -17.38918 0.00000
				CHANNELS 3 Xrotation Yrotation Zrotation
				JOINT LeftToeBase
				{
					OFFSET 0.00000 -1.27456 4.75673
					CHANNELS 3 Xrotation Yrotation Zrotation
					End Site
					{
						OFFSET 0.00000 0.00000 2.95275
					}
				}
			}
		}
	}
	JOINT RightUpLeg
	{
		OFFSET -4.01300 0.00000 0.00000
		CHANNELS 3 Xrotation Yrotation Zrotation
		JOINT RightLeg
		{
			OFFSET 0.00000 -16.89976 0.00000
			CHANNELS 3 Xrotation Yrotation Zrotation
			JOINT RightFoot
			{
				OFFSET 0.00000 -17.38918 0.00000
				CHANNELS 3 Xrotation Yrotation Zrotation
				JOINT RightToeBase
				{
					OFFSET 0.00000 -1.27456 4.75673
					CHANNELS 3 Xrotation Yrotation Zrotation
					End Site
					{
						OFFSET 0.00000 0.00000 2.95275
					}
				}
			}
		}
	}
}
MOTION
Frames: 7
Frame Time: 0.008333
 20.8766 35.5544 -22.7588 177.4145 -0.3154 178.6341 -13.7769 -1.4520 0.5511 9.5848 0.8015 1.2565 -36.1996 2.2414 16.4975 2.2162 -3.3972 -6.9384 2.6818 0.0000 6.9610 0.9929 8.5577 -6.6430 33.1476 -0.0000 26.2537 1.7551 -12.6910 -9.8608 -38.2588 1.5465 8.1226 4.2558 -0.0000 34.1691 1.1048 -6.7307 9.3442 32.8623 0.0000 -24.3270 5.8037 9.7343 2.0020 -6.2381 -0.0000 0.0000 -17.7051 28.4968 2.5890 26.0185 -0.0000 0.0000 4.4923 -9.0512 0.0620 -2.1614 -0.0000 -0.0000 -17.2846 -27.7437 1.5474 23.7991 -0.0000 0.0000
 20.8742 35.5543 -22.7604 177.4178 -0.3111 178.6373 -13.7636 -1.4526 0.5509 9.5741 0.8153 1.2522 -36.2242 2.2356 16.4994 2.2519 -3.3887 -6.9426 2.6830 0.0000 6.9645 0.9899 8.5644 -6.6182 33.1476 -0.0000 26.2537 1.7923 -12.6900 -9.8597 -38.3377 1.5646 8.1112 4.2462 -0.0000 34.1845 1.1301 -6.8189 9.4332 32.8623 0.0000 -24.3270 5.8130 9.7407 1.9934 -6.2436 0.0000 -0.0000 -17.7009 28.4998 2.5762 25.9765 -0.0000 0.0000 4.4937 -9.0390 0.0546 -2.1550 0.0000 0.0000 -17.2957 -27.7554 1.5527 23.7907 -0.0000 0.0000
 20.8730 35.5543 -22.7637 177.4133 -0.3158 178.6366 -13.7709 -1.4470 0.5455 9.5793 0.8256 1.2644 -36.2046 2.2276 16.5078 2.2344 -3.3873 -6.9570 2.6935 0.0000 6.9633 0.9860 8.5672 -6.5906 33.1476 -0.0000 26.2537 1.7894 -12.6841 -9.8658 -38.3304 1.5672 8.0839 4.2480 -0.0000 34.1229 1.1356 -6.7678 9.5485 32.8623 0.0000 -24.3270 5.8204 9.7422 1.9929 -6.2556 0.0000 -0.0000 -17.6960 28.4787 2.5865 25.9763 -0.0000 0.0000 4.4961 -9.0488 0.0557 -2.1566 0.0000 0.0000 -17.2836 -27.7590 1.5642 23.7891 -0.0000 -0.0000
 20.8706 35.5541 -22.7655 177.4109 -0.3095 178.6402 -13.7679 -1.4298 0.5448 9.5781 0.8104 1.2571 -36.1935 2.2282 16.4944 2.1945 -3.3934 -6.9352 2.7092 0.0000 7.1230 1.0014 8.5533 -6.7029 33.1476 -0.0000 26.2537 1.8017 -12.6873 -9.8841 -38.3647 1.5531 8.0843 4.2853 -0.0000 34.1525 1.1493 -6.8992 9.4819 32.8623 0.0000 -24.3270 5.8252 9.7387 1.9835 -6.2608 -0.0000 -0.0000 -17.6894 28.5002 2.5824 25.9411 -0.0000 0.0000 4.4893 -9.0529 0.0475 -2.1479 -0.0000 -0.0000 -17.2865 -27.7554 1.5675 23.7958 0.0000 -0.0000
 20.8709 35.5544 -22.7660 177.3921 -0.2973 178.6311 -13.7885 -1.4105 0.5489 9.5874 0.7961 1.2671 -36.1914 2.2023 16.5160 2.2234 -3.3730 -6.9789 2.6968 0.0000 6.9322 0.9832 8.5681 -6.5707 33.1476 -0.0000 26.2537 1.7928 -12.6695 -9.8804 -38.3425 1.5505 8.0366 4.2931 -0.0000 34.0499 1.1523 -6.8647 9.5528 32.8623 0.0000 -24.3270 5.8101 9.7349 1.9929 -6.2633 -0.0000 0.0000 -17.7066 28.5135 2.5826 25.9750 0.0000 -0.0000 4.4996 -8.9332 0.0569 -2.2020 -0.0000 -0.0000 -17.2680 -27.8542 1.5417 23.7378 0.0000 -0.0000
 20.8698 35.5543 -22.7681 177.3868 -0.3200 178.6302 -13.7902 -1.4288 0.5443 9.5841 0.7679 1.2497 -36.2138 2.1765 16.4978 2.2430 -3.3405 -6.9334 2.6802 0.0000 7.0412 1.0031 8.5484 -6.7183 33.1476 -0.0000 26.2537 1.8082 -12.6655 -9.8954 -38.4111 1.5101 8.0266 4.3577 -0.0000 34.0719 1.1583 -6.8750 9.5874 32.8623 0.0000 -24.3270 5.8084 9.7193 1.9939 -6.2709 -0.0000 -0.0000 -17.7013 28.5144 2.5821 25.9366 0.0000 -0.0000 4.5067 -8.9314 0.0596 -2.2116 0.0000 0.0000 -17.2745 -27.8786 1.5446 23.7701 -0.0000 -0.0000
 20.8670 35.5538 -22.7713 177.3948 -0.3220 178.6328 -13.7752 -1.4293 0.5441 9.5789 0.7815 1.2452 -36.1945 2.1862 16.4897 2.2512 -3.3624 -6.9263 2.7133 0.0000 6.9941 1.0015 8.5584 -6.6994 33.1476 -0.0000 26.2537 1.7978 -12.6561 -9.9066 -38.3783 1.5272 7.9999 4.3306 -0.0000 34.0632 1.1447 -6.7968 9.5836 32.8623 0.0000 -24.3270 5.8293 9.7017 1.9862 -6.2808 -0.0000 -0.0000 -17.7035 28.5219 2.5831 25.9548 -0.0000 0.0000 4.5037 -8.9803 0.0519 -2.1824 -0.0000 -0.0000 -17.2914 -27.8354 1.5408 23.7574 0.0000 0.0000
